<svg xmlns="http://www.w3.org/2000/svg" width="263.796" height="26.202" viewBox="0 0 263.796 26.202">
  <path id="Caminho_1" data-name="Caminho 1" d="M22.174,17.665h5.913l-5.58,19.291H16.63l-2.55-10.5-.018.055-.074.351-.2.924-.425,1.792-.7,2.957L11.6,36.957H5.691l-.24-.813-.628-2.18-.887-3.1L2.92,27.311Q1.7,23.061.148,17.665H6.1l2.4,9.683.222,1.146.222-1.146L11.2,17.665h5.765l2.328,9.72.259,1.109.074-.591a5.513,5.513,0,0,1,.111-.554Zm8.315-2.143q0,.037-.5.037H27.348l2.513-4.509H36.07V19.4a7.857,7.857,0,0,1,1.922-1.312,6.054,6.054,0,0,1,2.735-.573,6.179,6.179,0,0,1,4.9,1.829q1.608,1.829,1.608,5.821V36.957H41.613V25.907a3.62,3.62,0,0,0-.665-2.291,2.421,2.421,0,0,0-2.033-.85,3.182,3.182,0,0,0-2.014.647,2.977,2.977,0,0,0-.832,2.458V36.957H30.415ZM60.646,28.494a5.145,5.145,0,0,0-.776-.092q-.406-.018-.7-.018a5.638,5.638,0,0,0-2.513.48,1.705,1.705,0,0,0-.961,1.663,1.774,1.774,0,0,0,.351,1.164,2.108,2.108,0,0,0,.868.628,3.6,3.6,0,0,0,1.09.24q.573.037.979.037a8.565,8.565,0,0,0,1.663-.185V28.494Zm-1.922-4.065q.3,0,.794.019t1.127.055a1.868,1.868,0,0,0-1.016-1.866,6.416,6.416,0,0,0-2.532-.425,11.016,11.016,0,0,0-1.959.2,20.245,20.245,0,0,0-2.4.61l-.591-2.033q-.111-.407-.314-1.183t-.277-1.22a22.536,22.536,0,0,1,3.492-.905,18.056,18.056,0,0,1,2.975-.277,8.943,8.943,0,0,1,6.061,1.866q2.144,1.866,2.143,5.968V36.07q-1.441.406-3.326.795a20.154,20.154,0,0,1-4.065.388,16.9,16.9,0,0,1-3.492-.333,7.41,7.41,0,0,1-2.7-1.109,5.154,5.154,0,0,1-1.737-2.033,6.983,6.983,0,0,1-.61-3.067,5.643,5.643,0,0,1,.758-3.03,5.785,5.785,0,0,1,1.959-1.94,8.337,8.337,0,0,1,2.7-1.016,15.507,15.507,0,0,1,3.012-.3ZM70.4,22.285H68.111V17.628H70.4V12.38h5.543v5.248h4.583l-2.587,4.657h-2.18l.185,1.183v5.8a7.522,7.522,0,0,0,.129,1.552,2.141,2.141,0,0,0,.407.924,1.438,1.438,0,0,0,.7.462,3.369,3.369,0,0,0,.979.129,6.645,6.645,0,0,0,1-.092q.591-.092,1.257-.2l.3,2.476.222,2.217q-1.072.222-1.959.333a14.587,14.587,0,0,1-1.811.111,7.148,7.148,0,0,1-5.1-1.589Q70.4,34,70.4,30.341V22.285ZM97.2,28.974a8.027,8.027,0,0,1-3.289-1.811,4.594,4.594,0,0,1-1.293-3.511,5.453,5.453,0,0,1,2.033-4.509,8.763,8.763,0,0,1,5.617-1.626,14.234,14.234,0,0,1,2.827.3,27.677,27.677,0,0,1,3.64,1.072l-2.217,3.991q-1.146-.407-1.977-.61a8.05,8.05,0,0,0-1.9-.2,3.662,3.662,0,0,0-1.571.277.938.938,0,0,0-.573.905.769.769,0,0,0,.425.739,9.944,9.944,0,0,0,1.127.48l2,.591a13.328,13.328,0,0,1,1.866.7,5.159,5.159,0,0,1,1.478,1.016,4.286,4.286,0,0,1,.961,1.534,6.372,6.372,0,0,1,.351,2.254,5.9,5.9,0,0,1-2.236,4.693,8.008,8.008,0,0,1-2.661,1.386,11.766,11.766,0,0,1-3.566.5q-.776,0-1.5-.055a13.614,13.614,0,0,1-1.423-.185q-.7-.129-1.478-.351t-1.663-.517q.074-.259.148-.591t.222-.832q.148-.5.333-1.2t.48-1.737q1.552.407,2.605.591a12.276,12.276,0,0,0,2.125.185,6.445,6.445,0,0,0,.942-.074,3.942,3.942,0,0,0,.942-.259,2.258,2.258,0,0,0,.739-.48,1.049,1.049,0,0,0,.3-.776.818.818,0,0,0-.388-.776,6.827,6.827,0,0,0-1.164-.48Zm13.194-13.452q0,.037-.5.037h-2.642l2.513-4.509h6.209V19.4a7.858,7.858,0,0,1,1.922-1.312,6.054,6.054,0,0,1,2.735-.573,6.179,6.179,0,0,1,4.9,1.829q1.608,1.829,1.608,5.821V36.957h-5.617V25.907a3.62,3.62,0,0,0-.665-2.291,2.421,2.421,0,0,0-2.033-.85,3.182,3.182,0,0,0-2.014.647,2.977,2.977,0,0,0-.832,2.458V36.957h-5.654Zm28.567,1.922a10.435,10.435,0,0,1,3.455.536,5.89,5.89,0,0,1,2.568,1.737A8.208,8.208,0,0,1,146.57,22.8a16.262,16.262,0,0,1,.554,4.546v.573l-.074,1.164H136.7l-.776-.111a6.675,6.675,0,0,0,.24,1.718,2.34,2.34,0,0,0,.591,1.016,2.14,2.14,0,0,0,.942.517,6.148,6.148,0,0,0,1.257.185,3.876,3.876,0,0,0,1.977-.333,4.045,4.045,0,0,0,1.571-1.663q1.146.37,2.107.7.813.3,1.478.517a2.476,2.476,0,0,0,.665.185,9.824,9.824,0,0,1-3.234,4.047,8.009,8.009,0,0,1-4.564,1.275,11.422,11.422,0,0,1-3.548-.517,6.393,6.393,0,0,1-2.7-1.682,7.853,7.853,0,0,1-1.718-3.03,14.831,14.831,0,0,1-.61-4.564,14.548,14.548,0,0,1,.61-4.49,8.206,8.206,0,0,1,1.718-3.067,6.706,6.706,0,0,1,2.7-1.774,10.405,10.405,0,0,1,3.548-.573Zm2.033,7.391.554.074a3.334,3.334,0,0,0-.684-2.014,2.357,2.357,0,0,0-1.9-.721,2.733,2.733,0,0,0-2.125.721,3.539,3.539,0,0,0-.795,2.014q.185-.037.333-.055a2.7,2.7,0,0,1,.333-.018h4.287ZM160.207,15.6h-2.735l2.365-4.546h5.95V36.957h-5.58Zm5.543,11.383,4.767-9.313h6.32l-4.952,9.054q.665,1.183,1.386,2.495t1.46,2.642q.739,1.33,1.46,2.642t1.386,2.458h-6.283Zm14.783-4.73h-3.1l2.439-4.583h5.359l.48,2.07a8.025,8.025,0,0,1,2.2-1.663,6.26,6.26,0,0,1,2.938-.665,6.41,6.41,0,0,1,4.989,1.792q1.626,1.792,1.626,5.673V36.957h-5.617V25.833a3.121,3.121,0,0,0-.832-2.439,3.079,3.079,0,0,0-2.125-.739,2.892,2.892,0,0,0-1.922.721,2.969,2.969,0,0,0-.85,2.384v11.2h-5.58Zm29.639-4.8a11.624,11.624,0,0,1,3.585.536,7.139,7.139,0,0,1,2.864,1.718,8.1,8.1,0,0,1,1.885,3.067,13.378,13.378,0,0,1,.684,4.546,13.378,13.378,0,0,1-.684,4.546,8.1,8.1,0,0,1-1.885,3.067,7.139,7.139,0,0,1-2.864,1.718,12.32,12.32,0,0,1-7.188,0,7.156,7.156,0,0,1-2.846-1.718,8.1,8.1,0,0,1-1.885-3.067,13.378,13.378,0,0,1-.684-4.546,13.091,13.091,0,0,1,.684-4.49,8.3,8.3,0,0,1,1.885-3.067A7.235,7.235,0,0,1,206.569,18a11.22,11.22,0,0,1,3.6-.554Zm0,14.894a3.236,3.236,0,0,0,2.605-1.109,6.157,6.157,0,0,0,.942-3.917,6.243,6.243,0,0,0-.942-3.936,3.536,3.536,0,0,0-5.211.037,6.085,6.085,0,0,0-.979,3.9q0,2.809.961,3.917A3.292,3.292,0,0,0,210.172,32.337Zm32.189-14.672h5.913l-5.58,19.291h-5.876l-2.55-10.5-.018.055-.074.351-.2.924-.425,1.792-.7,2.957-1.053,4.416h-5.913l-.24-.813-.628-2.18-.887-3.1-1.016-3.548q-1.22-4.25-2.772-9.646h5.95l2.4,9.683.222,1.146.222-1.146,2.254-9.683h5.765l2.328,9.72.259,1.109.074-.591a5.513,5.513,0,0,1,.111-.554Zm12.048,11.309a8.027,8.027,0,0,1-3.289-1.811,4.594,4.594,0,0,1-1.293-3.511,5.453,5.453,0,0,1,2.033-4.509,8.763,8.763,0,0,1,5.617-1.626,14.234,14.234,0,0,1,2.827.3,27.676,27.676,0,0,1,3.64,1.072l-2.217,3.991q-1.146-.407-1.977-.61a8.05,8.05,0,0,0-1.9-.2,3.663,3.663,0,0,0-1.571.277.938.938,0,0,0-.573.905.769.769,0,0,0,.425.739,9.944,9.944,0,0,0,1.127.48l2,.591a13.327,13.327,0,0,1,1.866.7,5.159,5.159,0,0,1,1.478,1.016,4.285,4.285,0,0,1,.961,1.534,6.371,6.371,0,0,1,.351,2.254,5.9,5.9,0,0,1-2.236,4.693,8.008,8.008,0,0,1-2.661,1.386,11.767,11.767,0,0,1-3.566.5q-.776,0-1.5-.055a13.615,13.615,0,0,1-1.423-.185q-.7-.129-1.478-.351t-1.663-.517q.074-.259.148-.591t.222-.832q.148-.5.333-1.2t.48-1.737q1.552.407,2.605.591a12.276,12.276,0,0,0,2.125.185,6.445,6.445,0,0,0,.942-.074,3.941,3.941,0,0,0,.942-.259,2.258,2.258,0,0,0,.739-.48,1.049,1.049,0,0,0,.3-.776.818.818,0,0,0-.388-.776,6.828,6.828,0,0,0-1.164-.48Z" transform="translate(-0.148 -11.05)" fill="#fbd758"/>
</svg>
